<svg width="810" height="381" viewBox="0 0 810 381" fill="none" xmlns="http://www.w3.org/2000/svg">
<g filter="url(#filter0_d)">
<g filter="url(#filter1_d)">
<path d="M351.661 142.283H373.767C373.447 122.841 357.467 109.418 333.178 109.418C309.261 109.418 291.736 122.628 291.842 142.443C291.789 158.53 303.135 167.745 321.565 172.166L333.444 175.149C345.322 178.026 351.928 181.435 351.981 188.786C351.928 196.776 344.364 202.209 332.645 202.209C320.66 202.209 312.031 196.669 311.285 185.749H288.966C289.552 209.347 306.438 221.545 332.911 221.545C359.545 221.545 375.205 208.814 375.259 188.839C375.205 170.675 361.516 161.033 342.553 156.772L332.751 154.428C323.27 152.244 315.333 148.729 315.493 140.898C315.493 133.867 321.725 128.7 333.018 128.7C344.044 128.7 350.809 133.707 351.661 142.283ZM413.038 110.909H390.346V220H413.038V110.909ZM431.216 220H453.907V138.182H431.216V220ZM442.615 127.635C449.38 127.635 454.919 122.468 454.919 116.129C454.919 109.844 449.38 104.677 442.615 104.677C435.903 104.677 430.363 109.844 430.363 116.129C430.363 122.468 435.903 127.635 442.615 127.635ZM494.776 172.699C494.83 162.152 501.115 155.973 510.277 155.973C519.386 155.973 524.872 161.939 524.819 171.953V220H547.511V167.905C547.511 148.835 536.325 137.116 519.279 137.116C507.134 137.116 498.345 143.082 494.67 152.617H493.711V138.182H472.085V220H494.776V172.699ZM642.153 250.682V138.182H619.781V151.925H618.769C615.733 145.266 609.181 137.116 595.491 137.116C577.54 137.116 562.359 151.072 562.359 179.197C562.359 206.577 576.901 221.332 595.544 221.332C608.755 221.332 615.626 213.714 618.769 206.896H619.461V250.682H642.153ZM619.941 179.091C619.941 193.686 613.655 203.274 602.735 203.274C591.603 203.274 585.53 193.366 585.53 179.091C585.53 164.922 591.496 155.174 602.735 155.174C613.762 155.174 619.941 164.496 619.941 179.091ZM697.604 221.598C717.846 221.598 731.482 211.744 734.678 196.562L713.691 195.178C711.4 201.41 705.541 204.659 697.977 204.659C686.631 204.659 679.44 197.148 679.44 184.95V184.897H735.157V178.665C735.157 150.859 718.325 137.116 696.699 137.116C672.622 137.116 657.015 154.215 657.015 179.464C657.015 205.405 672.409 221.598 697.604 221.598ZM679.44 170.835C679.919 161.513 687.004 154.055 697.071 154.055C706.926 154.055 713.744 161.087 713.797 170.835H679.44ZM749.966 220H772.657V173.711C772.657 163.643 780.008 156.719 790.022 156.719C793.165 156.719 797.48 157.251 799.61 157.944V137.809C797.586 137.33 794.763 137.01 792.473 137.01C783.311 137.01 775.8 142.337 772.817 152.457H771.965V138.182H749.966V220Z" fill="white"/>
</g>
<path d="M202.069 77.7134H184.263C170.516 77.7134 158.821 86.4903 154.47 98.7465H172.278C186.025 98.7465 197.718 89.9677 202.069 77.7134Z" fill="white"/>
<path d="M125.887 47.4731C125.887 56.0453 129.128 63.9487 134.585 70.2909C144.17 63.355 150.287 52.8385 150.287 41.0614C150.287 32.4892 147.048 24.5839 141.588 18.2417C132.006 25.1776 125.887 35.6941 125.887 47.4731V47.4731Z" fill="white"/>
<path d="M207.136 126.436H190.574C175.488 126.436 162.715 136.325 158.372 149.971H174.932C190.018 149.971 202.79 140.082 207.136 126.436V126.436Z" fill="white"/>
<path d="M84.3185 116.177H77.3882C77.3882 134.841 92.5187 149.971 111.183 149.971H118.111C118.111 131.307 102.983 116.177 84.3185 116.177Z" fill="white"/>
<path d="M78.3839 67.1328C78.5567 84.4444 92.637 98.4251 109.99 98.4251H119.028C118.857 81.1136 104.775 67.1328 87.4238 67.1328H78.3839Z" fill="white"/>
<path d="M254.826 182.61C253.932 181.712 252.69 181.201 251.426 181.201C250.162 181.201 248.92 181.712 248.026 182.61C247.132 183.506 246.617 184.746 246.617 186.01C246.617 187.277 247.132 188.513 248.026 189.411C248.92 190.305 250.162 190.82 251.426 190.82C252.69 190.82 253.932 190.305 254.826 189.411C255.721 188.513 256.235 187.277 256.235 186.01C256.235 184.746 255.721 183.506 254.826 182.61Z" fill="white"/>
<path fill-rule="evenodd" clip-rule="evenodd" d="M229.784 181.201H183.874C175.746 181.201 167.838 179.569 160.375 176.345C153.21 173.253 145.607 171.442 137.927 170.903V165.272C141.444 161.374 145.336 157.863 149.535 154.78H174.932C196.217 154.78 213.536 137.461 213.536 116.176C213.536 113.52 211.381 111.367 208.727 111.367H181.919C161.519 111.367 144.776 127.275 143.414 147.335C141.526 148.74 139.7 150.232 137.927 151.788V113.221C141.171 109.637 144.754 106.402 148.618 103.556H172.278C192.36 103.556 208.7 87.2154 208.7 67.1329C208.7 64.4765 206.546 62.3236 203.891 62.3236H178.812C159.614 62.3236 143.848 77.2568 142.494 96.1163C140.929 97.2848 139.407 98.5153 137.927 99.7947V73.8058C148.725 65.7521 155.096 53.6875 155.096 41.0613C155.096 27.616 147.872 14.8075 135.772 6.79889C134.162 5.7337 132.073 5.7337 130.463 6.79889C118.363 14.8056 111.138 27.616 111.138 41.0613C111.138 53.6875 117.51 65.7521 128.308 73.8058V99.7947C126.828 98.5153 125.306 97.2848 123.74 96.1163C122.387 77.2568 106.622 62.3236 87.422 62.3236H62.3442C59.6878 62.3236 57.5349 64.4765 57.5349 67.1329C57.5349 87.2173 73.8752 103.556 93.9577 103.556H117.617C121.48 106.402 125.062 109.637 128.307 113.221V151.788C126.535 150.232 124.709 148.74 122.821 147.335C121.459 127.275 104.715 111.367 84.3166 111.367H57.5105C54.8541 111.367 52.7012 113.52 52.7012 116.176C52.7012 137.461 70.0184 154.78 91.3051 154.78H116.702C120.899 157.863 124.792 161.374 128.308 165.272V170.895C120.627 171.421 113.02 173.223 105.848 176.306L105.667 176.383C98.2278 179.58 90.3489 181.201 82.252 181.201H14.8093C12.1529 181.201 10 183.354 10 186.011C10 188.667 12.1529 190.82 14.8093 190.82H82.252C91.662 190.82 100.818 188.936 109.468 185.218L109.648 185.141C115.611 182.578 121.925 181.045 128.308 180.536H137.927L144.121 181.38C148.37 182.182 152.546 183.444 156.565 185.178C165.238 188.922 174.429 190.82 183.876 190.82H229.786C232.441 190.82 234.595 188.667 234.595 186.011C234.595 183.356 232.441 181.201 229.784 181.201ZM203.517 120.986H181.919C169.332 120.986 158.596 129.049 154.602 140.281C159.268 137.807 164.164 135.746 169.242 134.151C171.776 133.356 174.474 134.765 175.27 137.3C176.065 139.834 174.656 142.532 172.122 143.328C170.373 143.877 168.648 144.491 166.95 145.162H174.932C189.275 145.162 201.22 134.686 203.517 120.986ZM198.65 71.9422H178.812C167.463 71.9422 157.743 79.034 153.841 89.017C158.025 86.8528 162.398 85.0399 166.925 83.6197C169.462 82.825 172.159 84.2321 172.954 86.7683C173.749 89.3007 172.34 92.0003 169.805 92.7968C168.689 93.1462 167.587 93.5332 166.491 93.9371H172.278C185.415 93.9371 196.377 84.435 198.65 71.9422ZM67.5855 71.9422C69.8587 84.435 80.8205 93.9371 93.9577 93.9371H99.7439C98.6486 93.5332 97.5459 93.1481 96.43 92.7968C93.8957 92.0021 92.4867 89.3025 93.2814 86.7683C94.0761 84.234 96.7757 82.825 99.3099 83.6197C103.837 85.0399 108.213 86.8528 112.395 89.017C108.493 79.034 98.7726 71.9422 87.4238 71.9422H67.5855ZM62.718 120.986C65.0156 134.686 76.9599 145.162 91.3051 145.162H99.2874C97.5872 144.491 95.8645 143.877 94.1136 143.328C91.5794 142.532 90.1704 139.834 90.9669 137.3C91.7616 134.765 94.4593 133.356 96.9955 134.151C102.073 135.746 106.969 137.809 111.636 140.281C107.64 129.049 96.9034 120.986 84.3185 120.986H62.718ZM133.118 16.7425C125.222 22.9927 120.758 31.702 120.758 41.0613C120.758 48.3034 123.441 55.1491 128.308 60.7756V53.3682C128.308 50.7118 130.461 48.5589 133.118 48.5589C135.774 48.5589 137.927 50.7118 137.927 53.3682V60.7756C142.794 55.1491 145.477 48.3034 145.477 41.0613C145.477 31.702 141.014 22.9927 133.118 16.7425Z" fill="white"/>
<path d="M160.408 340.38C160.408 344.228 157.278 347.348 153.417 347.348C149.555 347.348 146.425 344.228 146.425 340.38C146.425 336.532 149.555 333.412 153.417 333.412C157.278 333.412 160.408 336.532 160.408 340.38Z" fill="white"/>
<path d="M139.788 360.032C139.788 363.88 136.657 367 132.796 367V353.065C136.657 353.065 139.788 356.184 139.788 360.032Z" fill="white"/>
<path d="M180.669 320.791C180.669 324.639 177.538 327.758 173.677 327.758C169.816 327.758 166.685 324.639 166.685 320.791C166.685 316.943 169.816 313.823 173.677 313.823C177.538 313.823 180.669 316.943 180.669 320.791Z" fill="white"/>
<path d="M201.104 300.815C201.104 304.663 197.974 307.782 194.113 307.782C190.251 307.782 187.121 304.663 187.121 300.815C187.121 296.967 190.251 293.847 194.113 293.847C197.974 293.847 201.104 296.967 201.104 300.815Z" fill="white"/>
<path d="M180.756 280.267C180.756 284.116 177.626 287.235 173.764 287.235C169.903 287.235 166.773 284.116 166.773 280.267C166.773 276.419 169.903 273.3 173.764 273.3C177.626 273.3 180.756 276.419 180.756 280.267Z" fill="white"/>
<path fill-rule="evenodd" clip-rule="evenodd" d="M137.817 275.803L148.396 287.605V335.707H153.416H158.078V296.188L168.836 307.633V316.216H173.857H178.339V309.957C177.106 305.35 176.06 302.983 173.14 299.407L159.333 284.386L158.078 281.347V220.37L168.657 230.92V275.624H173.857H178.519V240.755L188.022 250.59L189.277 254.345V296.188H193.939H198.601V254.345C198.601 254.345 197.166 248.623 195.373 245.762C193.58 242.901 158.078 206.065 158.078 206.065V179.6H148.575V213.754L147.32 216.078L137.817 226.629V179.6H132.796V355.913H137.817V275.803ZM148.396 230.026V273.836L137.817 261.14V242.722L148.396 230.026Z" fill="white"/>
<path d="M105.689 340.797C105.689 344.649 108.803 347.771 112.644 347.771C116.486 347.771 119.6 344.649 119.6 340.797C119.6 336.946 116.486 333.824 112.644 333.824C108.803 333.824 105.689 336.946 105.689 340.797Z" fill="white"/>
<path d="M126.02 360.026C126.02 363.878 129.134 367 132.975 367V353.052C129.134 353.052 126.02 356.175 126.02 360.026Z" fill="white"/>
<path d="M85.5333 321.191C85.5333 325.042 88.6474 328.165 92.4889 328.165C96.3303 328.165 99.4444 325.042 99.4444 321.191C99.4444 317.339 96.3303 314.217 92.4889 314.217C88.6474 314.217 85.5333 317.339 85.5333 321.191Z" fill="white"/>
<path d="M65.2031 301.197C65.2031 305.049 68.3172 308.171 72.1587 308.171C76.0002 308.171 79.1143 305.049 79.1143 301.197C79.1143 297.345 76.0002 294.223 72.1587 294.223C68.3172 294.223 65.2031 297.345 65.2031 301.197Z" fill="white"/>
<path d="M85.4462 280.631C85.4462 284.483 88.5604 287.605 92.4018 287.605C96.2433 287.605 99.3574 284.483 99.3574 280.631C99.3574 276.78 96.2433 273.657 92.4018 273.657C88.5604 273.657 85.4462 276.78 85.4462 280.631Z" fill="white"/>
<path d="M127.802 249.875L117.28 262.392V335.707H112.286H107.649V296.188L96.9482 307.633V316.216H91.9544H87.4957V309.957C88.7226 305.35 89.7625 302.983 92.6678 299.407L106.401 284.386L107.649 281.347V220.37L97.1265 230.92V275.624H91.9544H87.3174V240.755L77.8649 250.59L76.6165 254.345V296.188H71.9795H67.3424V254.345C67.3424 254.345 68.7692 248.623 70.5527 245.762C72.3362 242.901 107.649 206.065 107.649 206.065V179.6H117.101V246.477L127.802 234.675V179.6H132.796V355.913H127.802V249.875Z" fill="white"/>
</g>
<defs>
<filter id="filter0_d" x="0" y="0" width="809.61" height="381" filterUnits="userSpaceOnUse" color-interpolation-filters="sRGB">
<feFlood flood-opacity="0" result="BackgroundImageFix"/>
<feColorMatrix in="SourceAlpha" type="matrix" values="0 0 0 0 0 0 0 0 0 0 0 0 0 0 0 0 0 0 127 0"/>
<feOffset dy="4"/>
<feGaussianBlur stdDeviation="5"/>
<feColorMatrix type="matrix" values="0 0 0 0 0 0 0 0 0 0 0 0 0 0 0 0 0 0 0.25 0"/>
<feBlend mode="normal" in2="BackgroundImageFix" result="effect1_dropShadow"/>
<feBlend mode="normal" in="SourceGraphic" in2="effect1_dropShadow" result="shape"/>
</filter>
<filter id="filter1_d" x="284.966" y="104.677" width="518.645" height="154.005" filterUnits="userSpaceOnUse" color-interpolation-filters="sRGB">
<feFlood flood-opacity="0" result="BackgroundImageFix"/>
<feColorMatrix in="SourceAlpha" type="matrix" values="0 0 0 0 0 0 0 0 0 0 0 0 0 0 0 0 0 0 127 0"/>
<feOffset dy="4"/>
<feGaussianBlur stdDeviation="2"/>
<feColorMatrix type="matrix" values="0 0 0 0 0 0 0 0 0 0 0 0 0 0 0 0 0 0 0.1 0"/>
<feBlend mode="normal" in2="BackgroundImageFix" result="effect1_dropShadow"/>
<feBlend mode="normal" in="SourceGraphic" in2="effect1_dropShadow" result="shape"/>
</filter>
</defs>
</svg>
